<svg width="100" height="100" viewBox="0 0 100 100" fill="none" xmlns="http://www.w3.org/2000/svg">
<path d="M6.25 0C2.75 0 0 3.14286 0 7.14286C0 11.1429 2.75 14.2857 6.25 14.2857C9.75 14.2857 12.5 11.1429 12.5 7.14286C12.5 3.14286 9.75 0 6.25 0ZM25 0V14.2857H100V0H25ZM6.25 28.5714C2.75 28.5714 0 31.7143 0 35.7143C0 39.7143 2.75 42.8571 6.25 42.8571C9.75 42.8571 12.5 39.7143 12.5 35.7143C12.5 31.7143 9.75 28.5714 6.25 28.5714ZM25 28.5714V42.8571H100V28.5714H25ZM6.25 57.1429C2.75 57.1429 0 60.2857 0 64.2857C0 68.2857 2.75 71.4286 6.25 71.4286C9.75 71.4286 12.5 68.2857 12.5 64.2857C12.5 60.2857 9.75 57.1429 6.25 57.1429ZM25 57.1429V71.4286H100V57.1429H25ZM6.25 85.7143C2.75 85.7143 0 88.8571 0 92.8571C0 96.8571 2.75 100 6.25 100C9.75 100 12.5 96.8571 12.5 92.8571C12.5 88.8571 9.75 85.7143 6.25 85.7143ZM25 85.7143V100H100V85.7143H25Z" fill="white"/>
</svg>
